<?xml version="1.0" ?><svg id="Layer_1" style="enable-background:new 0 0 512 512;" version="1.1" viewBox="0 0 512 512" xml:space="preserve" xmlns="http://www.w3.org/2000/svg" xmlns:xlink="http://www.w3.org/1999/xlink"><style type="text/css">
	.st0{fill:#1EF6F6;}
	.st1{fill:#FDDD7B;}
	.st2{fill:#EAF3F2;}
	.st3{fill:#D4FF93;}
	.st4{fill:#FD535F;}
	.st5{stroke:#000000;stroke-width:2;stroke-linecap:round;stroke-linejoin:round;stroke-miterlimit:10;}
	.st6{fill:none;stroke:#000000;stroke-width:2;stroke-linecap:round;stroke-linejoin:round;stroke-miterlimit:10;}
	.st7{fill:#1EF6F6;stroke:#000000;stroke-width:2;stroke-linecap:round;stroke-linejoin:round;stroke-miterlimit:10;}
</style><g><g><g><circle class="st0" cx="256" cy="256" r="247.27"/><path d="M256,511C115.39,511,1,396.61,1,256S115.39,1,256,1s255,114.39,255,255S396.61,511,256,511z M256,16.46     C123.92,16.46,16.46,123.91,16.46,256S123.92,495.54,256,495.54S495.54,388.09,495.54,256S388.08,16.46,256,16.46z"/></g><g><path d="M256,511c-4.27,0-7.73-3.46-7.73-7.73V8.73c0-4.27,3.46-7.73,7.73-7.73s7.73,3.46,7.73,7.73v494.54     C263.73,507.54,260.27,511,256,511z"/></g><g><path d="M294.52,508.01c-2.04,0-4.08-0.81-5.6-2.4c-2.94-3.09-2.82-7.98,0.28-10.93c82.1-78.08,121.6-160.24,117.4-244.19     C399.74,113.55,277.41,17.04,276.18,16.09c-3.37-2.62-3.98-7.47-1.37-10.84c2.61-3.39,7.46-4,10.84-1.37     c5.27,4.08,129.1,101.64,136.38,245.72c4.48,88.7-36.62,174.92-122.18,256.28C298.35,507.3,296.44,508.01,294.52,508.01z"/></g><g><path d="M209.27,506.54c-2,0-3.99-0.77-5.5-2.3C118.02,417.16,78.08,327.18,85.07,236.8C95.86,97.34,213.54,8.48,218.54,4.77     c3.43-2.54,8.26-1.83,10.81,1.59c2.55,3.43,1.83,8.26-1.59,10.81c-1.17,0.87-117.12,88.58-127.29,220.95     c-6.58,85.68,31.87,171.56,114.31,255.26c3,3.04,2.96,7.94-0.08,10.93C213.19,505.8,211.23,506.54,209.27,506.54z"/></g><g><path d="M61.77,416.92c-1.88,0-3.76-0.68-5.25-2.05c-3.13-2.9-3.32-7.79-0.43-10.92c51.73-55.94,122.73-86.74,199.91-86.74     c77.44,0,148.41,30.79,199.85,86.69c2.89,3.14,2.69,8.03-0.45,10.92c-3.15,2.89-8.03,2.69-10.92-0.46     C396,361.68,329.07,332.66,256,332.66c-72.82,0-139.79,29.05-188.56,81.78C65.92,416.08,63.85,416.92,61.77,416.92z"/></g><g><path d="M256,158.16c-67.59,0-132.22-24.59-181.98-69.25c-3.18-2.85-3.44-7.73-0.59-10.91c2.85-3.17,7.73-3.46,10.91-0.59     c46.92,42.11,107.89,65.3,171.66,65.3c63.76,0,124.72-23.19,171.66-65.3c3.17-2.87,8.06-2.58,10.91,0.59     c2.85,3.18,2.59,8.07-0.59,10.91C388.2,133.56,323.58,158.16,256,158.16z"/></g></g><g><path d="M503.27,263.73H8.73C4.46,263.73,1,260.27,1,256c0-4.27,3.46-7.73,7.73-7.73h494.54c4.27,0,7.73,3.46,7.73,7.73    C511,260.27,507.54,263.73,503.27,263.73z"/></g></g></svg>